<svg height="1166" width="720" xmlns="http://www.w3.org/2000/svg">
<rect height="1166" fill="#555" width="720"></rect>
<text fill="#7f7" font-family="Courier New" font-size="12" xml:space="preserve">
<tspan x="10" y="26">9 megabytes installed</tspan>
<tspan x="10" y="42"></tspan>
<tspan x="10" y="58">node_modules</tspan>
<tspan x="10" y="74">└─┬ theo@5.0.0 </tspan>
<tspan x="10" y="90">  ├─┬ gulp-util@3.0.8 </tspan>
<tspan x="10" y="106">  │ ├── array-differ@1.0.0 </tspan>
<tspan x="10" y="122">  │ ├── array-uniq@1.0.3 </tspan>
<tspan x="10" y="138">  │ ├── beeper@1.1.1 </tspan>
<tspan x="10" y="154">  │ ├─┬ chalk@1.1.3 </tspan>
<tspan x="10" y="170">  │ │ ├── ansi-styles@2.2.1 </tspan>
<tspan x="10" y="186">  │ │ ├── escape-string-regexp@1.0.5 </tspan>
<tspan x="10" y="202">  │ │ ├─┬ has-ansi@2.0.0 </tspan>
<tspan x="10" y="218">  │ │ │ └── ansi-regex@2.1.1 </tspan>
<tspan x="10" y="234">  │ │ ├── strip-ansi@3.0.1 </tspan>
<tspan x="10" y="250">  │ │ └── supports-color@2.0.0 </tspan>
<tspan x="10" y="266">  │ ├── dateformat@2.0.0 </tspan>
<tspan x="10" y="282">  │ ├─┬ fancy-log@1.3.0 </tspan>
<tspan x="10" y="298">  │ │ └── time-stamp@1.0.1 </tspan>
<tspan x="10" y="314">  │ ├─┬ gulplog@1.0.0 </tspan>
<tspan x="10" y="330">  │ │ └── glogg@1.0.0 </tspan>
<tspan x="10" y="346">  │ ├─┬ has-gulplog@0.1.0 </tspan>
<tspan x="10" y="362">  │ │ └── sparkles@1.0.0 </tspan>
<tspan x="10" y="378">  │ ├── lodash._reescape@3.0.0 </tspan>
<tspan x="10" y="394">  │ ├── lodash._reevaluate@3.0.0 </tspan>
<tspan x="10" y="410">  │ ├── lodash._reinterpolate@3.0.0 </tspan>
<tspan x="10" y="426">  │ ├─┬ lodash.template@3.6.2 </tspan>
<tspan x="10" y="442">  │ │ ├── lodash._basecopy@3.0.1 </tspan>
<tspan x="10" y="458">  │ │ ├── lodash._basetostring@3.0.1 </tspan>
<tspan x="10" y="474">  │ │ ├── lodash._basevalues@3.0.0 </tspan>
<tspan x="10" y="490">  │ │ ├── lodash._isiterateecall@3.0.9 </tspan>
<tspan x="10" y="506">  │ │ ├─┬ lodash.escape@3.2.0 </tspan>
<tspan x="10" y="522">  │ │ │ └── lodash._root@3.0.1 </tspan>
<tspan x="10" y="538">  │ │ ├─┬ lodash.keys@3.1.2 </tspan>
<tspan x="10" y="554">  │ │ │ ├── lodash._getnative@3.9.1 </tspan>
<tspan x="10" y="570">  │ │ │ ├── lodash.isarguments@3.1.0 </tspan>
<tspan x="10" y="586">  │ │ │ └── lodash.isarray@3.0.4 </tspan>
<tspan x="10" y="602">  │ │ ├── lodash.restparam@3.6.1 </tspan>
<tspan x="10" y="618">  │ │ └── lodash.templatesettings@3.1.1 </tspan>
<tspan x="10" y="634">  │ ├── minimist@1.2.0 </tspan>
<tspan x="10" y="650">  │ ├─┬ multipipe@0.1.2 </tspan>
<tspan x="10" y="666">  │ │ └─┬ duplexer2@0.0.2 </tspan>
<tspan x="10" y="682">  │ │   └─┬ readable-stream@1.1.14 </tspan>
<tspan x="10" y="698">  │ │     ├── isarray@0.0.1 </tspan>
<tspan x="10" y="714">  │ │     └── string_decoder@0.10.31 </tspan>
<tspan x="10" y="730">  │ ├── object-assign@3.0.0 </tspan>
<tspan x="10" y="746">  │ ├── replace-ext@0.0.1 </tspan>
<tspan x="10" y="762">  │ └─┬ vinyl@0.5.3 </tspan>
<tspan x="10" y="778">  │   ├── clone@1.0.2 </tspan>
<tspan x="10" y="794">  │   └── clone-stats@0.0.1 </tspan>
<tspan x="10" y="810">  ├─┬ js-yaml@3.8.3 </tspan>
<tspan x="10" y="826">  │ ├─┬ argparse@1.0.9 </tspan>
<tspan x="10" y="842">  │ │ └── sprintf-js@1.0.3 </tspan>
<tspan x="10" y="858">  │ └── esprima@3.1.3 </tspan>
<tspan x="10" y="874">  ├── json5@0.5.1 </tspan>
<tspan x="10" y="890">  ├── lodash@4.17.4 </tspan>
<tspan x="10" y="906">  ├─┬ no-case@2.3.1 </tspan>
<tspan x="10" y="922">  │ └── lower-case@1.1.4 </tspan>
<tspan x="10" y="938">  ├─┬ through2@2.0.3 </tspan>
<tspan x="10" y="954">  │ ├─┬ readable-stream@2.2.9 </tspan>
<tspan x="10" y="970">  │ │ ├── buffer-shims@1.0.0 </tspan>
<tspan x="10" y="986">  │ │ ├── core-util-is@1.0.2 </tspan>
<tspan x="10" y="1002">  │ │ ├── inherits@2.0.3 </tspan>
<tspan x="10" y="1018">  │ │ ├── isarray@1.0.0 </tspan>
<tspan x="10" y="1034">  │ │ ├── process-nextick-args@1.0.7 </tspan>
<tspan x="10" y="1050">  │ │ ├── string_decoder@1.0.0 </tspan>
<tspan x="10" y="1066">  │ │ └── util-deprecate@1.0.2 </tspan>
<tspan x="10" y="1082">  │ └── xtend@4.0.1 </tspan>
<tspan x="10" y="1098">  ├── tinycolor2@1.4.1 </tspan>
<tspan x="10" y="1114">  └─┬ xml2js@0.4.17 </tspan>
<tspan x="10" y="1130">    ├── sax@1.2.2 </tspan>
<tspan x="10" y="1146">    └── xmlbuilder@4.2.1</tspan>
</text>
</svg>
